<svg width="32" height="32" viewBox="0 0 32 32" fill="none" xmlns="http://www.w3.org/2000/svg">
<g clip-path="url(#clip0_162_81)">
<path d="M27.2 0H4.8C2.14903 0 0 2.14903 0 4.8V27.2C0 29.851 2.14903 32 4.8 32H27.2C29.851 32 32 29.851 32 27.2V4.8C32 2.14903 29.851 0 27.2 0Z" fill="#3178C6"/>
<path d="M14.5625 17.7501H18.5625V15.1876H7.375V17.7501H11.375V29.1876H14.5625V17.7501ZM19.8125 28.5626C20.3187 28.8251 20.9375 29.0189 21.625 29.1501C22.3125 29.2814 23.0625 29.3439 23.8125 29.3439C24.5625 29.3439 25.25 29.2751 25.9375 29.1314C26.625 28.9876 27.1875 28.7501 27.6875 28.4439C28.1937 28.1126 28.625 27.6939 28.875 27.1314C29.125 26.5689 29.3187 25.9439 29.3187 25.1314C29.3187 24.5626 29.2312 24.0689 29.0625 23.6314C28.8937 23.1939 28.65 22.8189 28.3125 22.5064C27.9937 22.1751 27.625 21.8814 27.1875 21.6314C26.75 21.3814 26.25 21.1189 25.6875 20.8814C25.275 20.7126 24.9375 20.5501 24.5625 20.3876C24.2375 20.2251 23.9562 20.0626 23.75 19.9001C23.5187 19.7314 23.3437 19.5564 23.2187 19.3751C23.0937 19.1876 23.0312 18.9814 23.0312 18.7501C23.0312 18.5376 23.0869 18.3439 23.2 18.1689C23.3131 17.9939 23.4688 17.8501 23.6687 17.7251C23.8687 17.6001 24.1187 17.5064 24.4187 17.4376C24.7125 17.3689 25.0375 17.3376 25.4187 17.3376C25.6812 17.3376 25.9562 17.357 26.2312 17.3964C26.5187 17.4358 26.8125 17.4964 27.1062 17.5776C27.4 17.6589 27.6875 17.7589 27.9812 17.8839C28.2563 18.0089 28.5125 18.1526 28.7312 18.3151V15.3776C28.2563 15.1964 27.7312 15.0589 27.1687 14.9714C26.6062 14.8839 25.9812 14.8401 25.2312 14.8401C24.4812 14.8401 23.7937 14.9214 23.1062 15.0776C22.4187 15.2339 21.8562 15.4839 21.3562 15.8276C20.85 16.1651 20.4812 16.5776 20.1687 17.1401C19.875 17.6651 19.7312 18.2651 19.7312 19.0151C19.7312 19.9526 20 20.7651 20.5437 21.3901C21.0813 22.0776 21.9187 22.5776 22.9812 23.0776C23.4125 23.2526 23.7937 23.4276 24.1687 23.5964C24.5437 23.7651 24.8562 23.9401 25.1062 24.1214C25.375 24.3026 25.5875 24.5026 25.7312 24.7151C25.8875 24.9276 25.9687 25.1776 25.9687 25.4651C25.9687 25.6651 25.92 25.8526 25.825 26.0276C25.73 26.2026 25.5812 26.3526 25.3812 26.4776C25.1812 26.6026 24.9375 26.7026 24.6312 26.7776C24.3375 26.8464 24.0062 26.8839 23.5687 26.8839C22.8812 26.8839 22.1937 26.7651 21.5687 26.5276C20.8812 26.2901 20.2562 25.9339 19.8125 25.5626V28.5626Z" fill="white"/>
</g>
<defs>
<clipPath id="clip0_162_81">
<rect width="32" height="32" fill="white"/>
</clipPath>
</defs>
</svg>
