<svg width="52" height="52" viewBox="0 0 52 52" fill="none" xmlns="http://www.w3.org/2000/svg">
<rect width="52" height="52" rx="26" fill="black"/>
<path d="M10.3967 34.7258L12.2044 33.9829L11.0678 19.4172L7.82168 19.851L7.81199 23.5831L6.22681 23.7068L5.39922 18.1142L19.2471 17.0336L19.2971 22.6869L17.682 22.8129L17.0935 19.1275L13.8493 19.2001L14.9742 33.6163L16.9949 34.0604L17.0953 35.3465L10.4854 35.8623L10.3967 34.7258ZM28.0485 34.7626C26.5531 34.8793 24.6012 34.9313 22.1929 34.9186L21.9752 29.4289L23.6501 29.2982L24.39 32.6107C25.177 32.6697 25.9831 32.7171 26.8084 32.753C27.6521 32.7674 28.3431 32.7536 28.8815 32.7116C29.0011 32.7023 29.1505 32.5602 29.3297 32.2854C29.5089 32.0107 29.6642 31.6876 29.7957 31.3163C29.9257 30.925 29.9774 30.5598 29.951 30.2209C29.8903 29.4432 29.5506 28.8178 28.9319 28.3444C28.3331 27.8696 27.4199 27.3491 26.1921 26.7829C25.2129 26.3176 24.4179 25.8982 23.807 25.5246C23.1961 25.151 22.6563 24.6615 22.1878 24.0561C21.7393 23.4492 21.4823 22.727 21.4169 21.8895C21.3734 21.3312 21.3828 20.8089 21.4451 20.3226C21.6502 19.8652 22.0591 19.3218 22.672 18.6922C23.2849 18.0626 23.9239 17.5112 24.5891 17.038C25.2528 16.5449 25.7541 16.2851 26.0931 16.2587C26.2526 16.2462 27.4375 16.2641 29.648 16.3123C29.8888 16.3135 30.1396 16.314 30.4004 16.3137C30.6612 16.3135 30.9227 16.3231 31.185 16.3428L31.3794 21.5334L29.7045 21.6641L29.0178 18.6484C28.3704 18.5785 27.6042 18.528 26.7191 18.4968C25.8523 18.444 25.1996 18.4348 24.761 18.469C24.5018 18.4892 24.2964 18.6858 24.145 19.0587C23.992 19.4117 23.9443 19.957 24.0018 20.6948C24.0641 21.4924 24.3953 22.1386 24.9957 22.6334C25.596 23.1282 26.4686 23.6418 27.6135 24.1744C28.7384 24.7085 29.6064 25.1623 30.2173 25.5359C30.8466 25.888 31.4055 26.366 31.8939 26.9698C32.3824 27.5737 32.6616 28.3242 32.7316 29.2215C32.7705 29.72 32.7488 30.2132 32.6665 30.701C32.4662 31.2182 32.0695 31.7908 31.4766 32.4188C30.8836 33.0469 30.2538 33.5875 29.587 34.0407C28.9402 34.4924 28.4274 34.7331 28.0485 34.7626ZM41.2506 33.7324C39.7551 33.8491 37.8033 33.9011 35.395 33.8884L35.1772 28.3987L36.8521 28.268L37.5921 31.5805C38.379 31.6395 39.1852 31.6869 40.0105 31.7228C40.8542 31.7372 41.5452 31.7234 42.0835 31.6814C42.2032 31.6721 42.3526 31.53 42.5317 31.2552C42.7109 30.9805 42.8662 30.6574 42.9978 30.2861C43.1277 29.8948 43.1795 29.5296 43.153 29.1907C43.0923 28.413 42.7526 27.7876 42.1339 27.3143C41.5352 26.8394 40.6219 26.3189 39.3942 25.7527C38.415 25.2874 37.62 24.868 37.009 24.4944C36.3981 24.1208 35.8584 23.6313 35.3899 23.0259C34.9413 22.419 34.6843 21.6968 34.619 20.8593C34.5754 20.301 34.5848 19.7787 34.6472 19.2924C34.8522 18.835 35.2612 18.2916 35.8741 17.662C36.4869 17.0324 37.126 16.481 37.7912 16.0078C38.4548 15.5147 38.9561 15.2549 39.2951 15.2285C39.4546 15.216 40.6396 15.2339 42.85 15.2821C43.0909 15.2833 43.3417 15.2838 43.6024 15.2835C43.8632 15.2833 44.1248 15.2929 44.3871 15.3126L44.5815 20.5032L42.9066 20.6339L42.2199 17.6182C41.5725 17.5483 40.8062 17.4978 39.9211 17.4666C39.0544 17.4138 38.4017 17.4046 37.963 17.4388C37.7038 17.459 37.4985 17.6556 37.347 18.0285C37.194 18.3815 37.1463 18.9269 37.2039 19.6646C37.2661 20.4622 37.5974 21.1084 38.1977 21.6032C38.798 22.098 39.6706 22.6116 40.8155 23.1442C41.9405 23.6783 42.8084 24.1321 43.4193 24.5057C44.0486 24.8578 44.6075 25.3358 45.096 25.9396C45.5844 26.5435 45.8637 27.294 45.9337 28.1913C45.9726 28.6898 45.9509 29.183 45.8686 29.6709C45.6682 30.188 45.2716 30.7606 44.6786 31.3886C44.0857 32.0167 43.4558 32.5573 42.7891 33.0105C42.1423 33.4622 41.6294 33.7029 41.2506 33.7324Z" fill="white"/>
</svg>
