<svg width="242" height="64" viewBox="0 0 242 64" fill="none" xmlns="http://www.w3.org/2000/svg">
<g clip-path="url(#clip0_297_679)">
<path d="M240.265 30.6447C239.686 29.3305 239.108 28.2627 238.488 27.3181C237.785 26.3325 236.959 25.3468 236.009 24.4022C234.232 22.6773 232.084 21.1578 229.604 19.8846C227.125 18.6115 223.779 17.6258 219.729 16.8455C215.887 16.1473 211.714 16.2705 207.706 17.2562C203.409 18.2829 199.566 20.2953 196.385 23.2523C195.6 23.9915 194.815 24.7718 194.154 25.6343L193.369 26.6199L192.79 25.5111C192.377 24.7308 191.964 23.9094 191.468 22.9648L191.137 22.3488L191.674 21.9381C192.253 21.4863 192.79 20.9935 193.245 20.4596C194.567 18.94 195.724 17.2151 196.674 15.2849L199.442 9.78161L194.236 6.49608C192.831 5.59256 192.129 5.18187 190.766 4.31942L184.568 0.458923L182.708 3.86766L181.717 3.45697C181.097 3.25162 180.643 3.08735 180.229 2.96414C179.858 2.84093 178.907 2.59452 177.668 2.51238C177.502 2.51238 177.337 2.51238 177.172 2.51238C174.858 2.51238 172.503 3.37483 170.189 5.09973C167.999 6.7425 166.305 9.16557 165.148 12.369L163.248 17.6669L168.288 20.5828L167.71 21.322C166.14 23.2933 165.066 24.6897 163.165 27.1128C162.38 28.0984 162.008 28.6323 161.223 29.618C160.438 30.6447 160.025 31.1786 159.281 32.1643C158.744 32.8624 158.496 33.191 157.876 33.9713L157.257 34.7516H156.802C156.513 34.7106 156.265 34.6695 156.017 34.6284C155.728 34.6284 155.439 34.5463 154.984 34.5463H154.158C154.158 34.5052 154.571 27.6467 154.571 27.6467L155.645 14.1349L156.1 7.60495C153.207 7.3996 143.25 6.7425 133.457 6.45501C131.102 6.37287 128.458 6.33181 125.607 6.33181C122.756 6.33181 118.459 6.37287 114.74 6.49608L114.286 8.59061L113.542 8.50847C113.459 8.50847 104.121 7.56388 88.2967 7.56388C72.4718 7.56388 82.5948 7.56388 79.7025 7.64602V10.9726C79.6612 10.9726 78.5456 10.5619 78.5456 10.5619C78.5456 10.5619 74.6204 9.20664 68.3814 9.20664C62.1423 9.20664 63.3405 9.41199 60.8201 9.82268C52.9284 11.1369 44.7887 16.4348 44.7061 16.5169L43.8797 17.0919L43.5079 16.1473C42.8055 14.4224 41.9378 12.3279 40.6569 9.37092L38.0539 3.16948L31.7322 5.6747C29.5837 6.53715 28.5094 6.98891 26.3609 7.85136L25.989 8.01564C25.204 8.38526 24.4189 8.75488 23.7165 9.08344C22.8075 9.49413 21.9398 9.94589 21.0722 10.3976C19.5021 11.219 18.0146 12.1636 16.4445 13.2725C12.2714 16.2295 8.842 19.4328 6.23896 22.8005C5.08206 24.3201 4.09042 25.8807 3.26406 27.4413C2.47902 28.9609 1.77661 30.7269 1.19816 32.6571C0.619703 34.5873 0.24784 36.4355 0.0825676 38.1193C-0.0827047 39.9674 0.0412496 41.8976 0.413112 43.869C0.991565 46.9081 2.31374 49.7418 4.29701 52.3703C6.23896 54.9166 8.18091 56.7647 10.2468 57.9557C13.0151 59.5574 15.9074 60.7484 18.9236 61.4465C21.4027 62.0215 23.9644 62.3501 26.5675 62.3911H27.022C27.2699 62.3911 27.5591 62.3911 27.807 62.3911C30.534 62.3501 33.5089 62.0626 36.6077 61.6108C40.7809 60.9948 45.078 59.927 49.3337 58.4485L54.6224 56.6004L54.4985 55.8611L55.738 56.1897C56.3165 56.354 56.8949 56.5183 57.4321 56.6004C60.4483 57.2575 63.7537 57.4218 67.1831 57.1343C69.1251 56.97 70.9431 56.6004 72.5958 56.0665C74.1659 55.5737 75.6947 54.9576 77.1821 54.2184C77.6779 53.972 78.1324 53.7256 78.5869 53.4791L79.7438 52.822L79.9917 57.1754L86.8505 56.8057C91.1063 56.5593 93.1309 56.4772 97.2627 56.354L104.989 56.1076L108.129 60.543L115.484 54.9576H120.277C124.45 55.0398 126.516 55.0808 131.185 55.204L134.78 55.3272C136.432 55.3683 137.3 55.4094 138.911 55.4915C141.721 55.6969 143.167 55.8201 146.018 56.0665C148.456 56.2718 149.695 56.395 152.133 56.6004C153.579 56.7236 154.323 56.8057 155.769 56.97L161.636 57.545L167.669 61.6519L171.47 55.6558L173.123 52.9452H173.619C175.313 53.0684 177.007 53.1506 178.701 53.2327H179.238L179.444 53.7256C179.858 54.7112 180.271 55.7379 180.808 57.0521L183.411 63.4179L189.815 60.7484C193.079 59.3931 194.98 58.6538 197.542 57.6271L197.955 57.4628L198.327 57.7503C199.318 58.4485 200.393 59.1056 201.467 59.7216C204.277 61.2001 207.458 62.2679 210.929 62.884C212.871 63.2536 214.813 63.3768 216.548 63.3357C218.201 63.2947 219.936 63.0893 221.63 62.8018C224.936 62.1858 227.952 61.0359 230.596 59.352C233.24 57.6682 235.472 55.6147 237.248 53.1506C238.24 51.7542 239.025 50.4811 239.603 49.249C240.223 47.9348 240.678 46.4974 241.05 44.9368C241.587 42.4726 241.835 40.0906 241.711 37.7907C241.587 35.4087 241.05 32.9857 240.017 30.6036" fill="white"/>
<path d="M238.034 36.9694C237.951 35.0391 237.497 33.0678 236.629 31.0965C236.175 29.9876 235.72 29.1662 235.224 28.427C234.687 27.6467 234.026 26.8664 233.241 26.0861C231.754 24.6486 229.936 23.3344 227.828 22.2666C225.68 21.1578 222.705 20.2953 219.028 19.5971C215.681 18.9811 212.169 19.1043 208.615 19.9668C204.979 20.8292 201.757 22.5541 199.071 25.0593C196.427 27.5235 194.526 30.6858 193.452 34.5052C193.08 33.766 192.667 32.9446 192.212 32C190.27 28.1806 189.32 26.3325 187.337 22.5952C186.593 21.1578 186.097 20.2953 185.519 19.1454C187.337 19.0632 188.989 18.2419 190.27 16.8044C191.386 15.5313 192.336 14.0528 193.162 12.4511L194.319 10.1102L192.088 8.71384C190.725 7.85138 190.022 7.39962 188.617 6.53717L185.973 4.89441L184.486 7.60497C184.403 7.76925 184.32 7.93352 184.238 8.01566C183.866 7.85138 183.535 7.68711 183.246 7.52283L183.122 7.44069C182.131 6.9068 181.635 6.66038 180.643 6.16755L180.313 6.00327C179.817 5.79793 179.404 5.67472 179.073 5.59258C178.866 5.51045 178.205 5.34617 177.379 5.3051C175.891 5.22296 174.239 5.839 172.503 7.11214C170.933 8.30314 169.694 10.1102 168.826 12.5743L168.041 14.8331L170.148 16.0652C171.47 16.8455 172.132 17.2151 173.495 17.9955L174.239 18.4061C174.115 18.5704 173.991 18.7347 173.826 18.899C173.164 19.6793 172.834 20.09 172.173 20.9114C169.818 23.8683 168.661 25.3468 166.306 28.427C165.521 29.4127 165.149 29.9466 164.364 30.9322C163.579 31.9589 163.166 32.4928 162.422 33.4785C161.885 34.1767 161.637 34.5052 161.058 35.2445L160.852 35.532C160.439 36.1069 160.149 36.4765 159.695 37.0926C159.53 37.339 159.364 37.5443 159.199 37.7908L157.588 37.6676C156.637 37.5854 154.861 37.5033 152.753 37.3801C151.638 37.339 150.605 37.2979 149.655 37.2158L150.316 26.2914L151.431 12.2047L148.415 12.0404C144.407 11.794 140.399 11.6297 136.557 11.5065H135.648L134.697 11.4244H133.54H132.631C128.665 11.2601 124.698 11.2191 120.814 11.178H117.881L117.798 32.2875C117.798 34.2999 117.716 36.3533 117.716 38.3657C117.509 38.1604 117.302 37.914 117.055 37.6676L114.906 35.573L113.666 34.4231L112.675 33.4785C112.84 33.3142 113.005 33.15 113.171 33.0267C114.204 32.0411 114.989 31.1376 115.608 30.193C116.848 28.2627 117.509 26.1682 117.468 24.0737C117.468 22.9648 117.344 21.8559 117.055 20.8703C116.641 19.3097 115.443 17.0919 112.262 15.4902C110.196 14.4635 107.841 13.7653 105.196 13.3546C102.8 12.985 101.023 12.7797 99.9075 12.7386C98.8333 12.6975 97.635 12.6975 96.3542 12.7386C95.156 12.7386 93.9991 12.7797 92.8835 12.8207H91.3547C89.7846 12.8618 88.2972 12.944 86.975 12.985C86.066 13.0261 85.5288 13.0672 84.7025 13.1082L81.521 13.2725L81.6863 16.1884C81.6863 16.9277 81.8102 17.9544 81.8929 19.3097C81.5623 18.94 81.2318 18.6526 80.9012 18.3651C80.1988 17.749 79.3311 17.1741 78.4221 16.6812C76.6455 15.6956 74.6209 14.9974 72.3484 14.5046C70.0346 14.0528 67.0597 13.9707 63.4237 14.2992C60.1182 14.5867 56.8954 15.6134 53.7966 17.3383C50.6151 19.1043 48.0533 21.5685 46.194 24.6076C45.1198 26.3736 44.376 28.2627 43.9215 30.3162C39.8724 30.8501 35.6992 31.4251 31.2782 32.0822L28.3859 32.5339L28.8404 35.4088C28.9231 35.9016 29.047 36.6408 29.2536 37.6265C29.4189 38.53 29.5428 39.1871 29.6255 39.5978L29.9147 41.528C29.5429 41.528 29.171 41.528 28.7578 41.487C28.4273 41.487 27.6422 41.3227 26.1548 40.5013C25.8655 40.337 25.411 39.8853 24.8326 39.1871C24.502 38.7764 24.2541 38.3657 24.1715 37.914V36.8051C24.2541 35.6141 24.6673 34.5052 25.3697 33.4374C26.1135 32.2464 27.353 31.0144 28.9644 29.7412C32.1046 27.3181 35.8232 25.5111 39.6658 24.4844L42.8886 23.6219L41.649 20.5417C39.9137 16.3116 39.046 14.176 37.1867 9.74056L36.0711 7.07107L33.3854 8.13887C31.2369 9.00132 30.1626 9.45308 28.0554 10.3155L27.8901 10.3977C27.0638 10.8084 26.2787 11.178 25.5763 11.5065C24.75 11.9172 23.9236 12.3279 23.1385 12.7386C21.6924 13.5189 20.3289 14.3814 18.9241 15.367C15.0815 18.0776 11.9413 21.0346 9.58622 24.1147C8.55327 25.429 7.68559 26.8253 6.94186 28.2217C6.23945 29.5359 5.661 31.0554 5.16518 32.7393C4.66937 34.4231 4.33882 36.0248 4.21487 37.4622C4.09091 38.9407 4.17355 40.5424 4.50409 42.1441C4.99991 44.6082 6.03286 46.9492 7.68559 49.0848C9.29699 51.2204 10.8671 52.7399 12.4785 53.6845C14.9163 55.1219 17.4367 56.1487 20.0397 56.7647C22.2296 57.2986 24.5434 57.545 26.8572 57.5861C27.229 57.5861 27.6009 57.5861 27.9728 57.5861C30.5345 57.545 33.3441 57.2986 36.2777 56.8468C40.2029 56.2719 44.2521 55.2451 48.3013 53.8488L50.5738 53.0685L49.83 47.8116C50.3258 48.1812 50.8217 48.5509 51.3588 48.9205C53.466 50.3168 55.9038 51.3436 58.5895 51.9185C60.2422 52.2882 61.9775 52.4935 63.7955 52.4935C64.8698 52.4935 65.9854 52.4935 67.101 52.3703C68.7537 52.206 70.2825 51.9185 71.6873 51.4668C73.0508 51.0561 74.4143 50.4811 75.7365 49.8651C78.2156 48.633 80.3228 47.0724 82.0581 45.1421C82.5953 44.5261 83.0911 43.869 83.5456 43.2119L84.0414 52.206L86.975 52.0417C91.2721 51.7953 93.338 51.7132 97.4698 51.59L100.445 51.4668L100.321 48.5098C100.197 46.0046 100.073 43.4994 99.9902 40.9531C102.552 44.444 105.114 47.9759 107.593 51.5489L109.369 54.0541L111.807 52.206C114.245 50.3168 115.815 49.1669 117.798 47.6884V50.1115H120.732C124.988 50.1115 127.095 50.1936 131.722 50.3168H133.54C133.54 50.3579 135.358 50.44 135.358 50.44C137.052 50.5222 137.92 50.5222 139.614 50.6043C142.465 50.8097 143.911 50.9329 146.762 51.1793C149.241 51.3846 150.44 51.5078 152.919 51.7132C154.365 51.8364 155.108 51.9185 156.596 52.0828L159.612 52.3703L159.777 50.2758C161.224 51.2204 162.587 52.1649 164.488 53.4381L167.008 55.163L168.62 52.5756L171.429 47.8938C175.065 48.058 178.701 48.2634 182.378 48.5098C183.246 50.6043 183.866 52.0828 184.899 54.588L186.014 57.2986L188.741 56.1487C192.749 54.5059 194.733 53.6845 198.823 52.0828L199.154 51.9596C200.517 53.1917 202.046 54.3005 203.822 55.2041C206.26 56.4772 209.07 57.4218 212.169 57.9968C213.532 58.2432 214.854 58.3664 216.094 58.4075C216.383 58.4075 216.672 58.4075 216.962 58.4075C218.449 58.3664 219.937 58.2021 221.424 57.9146C224.234 57.3807 226.754 56.4361 228.985 54.9987C231.175 53.6024 233.076 51.8364 234.563 49.7829C235.431 48.5919 236.051 47.5241 236.546 46.5385C237.042 45.5118 237.414 44.3207 237.703 43.0476C238.158 40.912 238.364 38.8586 238.282 36.8872M220.267 39.5978C220.143 40.2138 219.978 40.8299 219.771 41.3227C219.482 42.0619 219.234 42.5958 218.986 43.0887C218.573 43.869 217.912 44.5261 217.044 45.06C216.301 45.4707 215.35 45.635 214.111 45.5528L213.615 45.4707C212.871 45.3475 211.921 44.9779 211.094 43.4994C210.351 42.1441 210.186 40.2138 210.599 37.7497C210.723 37.0515 210.888 36.4355 211.136 35.9016C211.342 35.4498 211.632 34.957 212.003 34.5052C212.706 33.6017 213.491 32.9035 214.276 32.575C214.73 32.3696 215.144 32.2464 215.557 32.1643C215.887 32.1232 216.301 32.1643 216.714 32.2054L217.168 32.2875C218.532 32.5339 219.482 33.15 220.019 34.1356C220.639 35.3266 220.763 37.2158 220.267 39.5978ZM64.9938 26.8253C65.2004 26.8253 65.4069 26.8253 65.5722 26.8253C66.6052 26.8253 67.4315 27.1539 68.01 27.811C68.919 28.7556 69.4561 30.4805 69.6627 32.7803C69.704 33.3964 69.704 33.9713 69.6627 34.5463C69.5801 35.2855 69.4974 35.9016 69.3735 36.4355C69.2082 37.2569 68.7537 38.0372 68.0926 38.7354C67.5555 39.3103 66.6878 39.721 65.5722 39.9264H65.0764C64.9524 39.9674 64.8285 40.0085 64.7045 39.9674C64.1674 39.9674 63.2997 39.8442 62.2668 38.7764C61.2338 37.7086 60.5727 35.9837 60.3248 33.6017C60.2422 32.9035 60.2422 32.2875 60.3248 31.7125C60.4075 31.2608 60.5314 30.7269 60.7793 30.193C61.1925 29.1663 61.7296 28.3449 62.3494 27.811C62.8039 27.4413 63.1758 27.236 63.4237 27.1128C63.7129 26.9896 64.0848 26.9074 64.498 26.8664H64.9524L64.9938 26.8253ZM99.6183 25.3879C100.073 25.7164 100.073 25.9629 100.114 26.1271C100.114 26.8253 99.6596 27.6056 99.2465 28.1806C99.2465 28.1806 99.2051 28.2627 99.1638 28.3038C99.1225 27.2771 99.0812 26.2093 98.9986 25.1825C99.3704 25.3058 99.5357 25.3879 99.6183 25.429" fill="#422010"/>
<path d="M218.49 21.0345C221.961 21.6506 224.605 22.472 226.506 23.4165C228.365 24.3611 229.935 25.47 231.216 26.7021C231.836 27.3181 232.373 27.9752 232.827 28.5913C233.282 29.2484 233.654 29.9876 233.984 30.7679C234.563 32.1643 235.059 33.8481 235.141 35.6141C235.224 37.4622 235.017 39.3103 234.645 41.0352C234.397 42.103 234.067 43.0887 233.695 43.9511C233.282 44.8136 232.745 45.7171 232.001 46.7438C230.72 48.5098 229.109 50.0293 227.208 51.2203C225.307 52.4113 223.118 53.2738 220.68 53.7256C219.316 53.972 217.953 54.1362 216.672 54.1773C215.35 54.2184 213.986 54.0952 212.499 53.8488C209.689 53.3559 207.21 52.4935 205.02 51.3435C202.83 50.1936 201.012 48.7562 199.525 47.0724C198.079 45.3885 197.005 43.5815 196.426 41.6512C196.137 40.7066 195.93 39.721 195.848 38.7353C195.765 37.7497 195.806 36.7229 195.93 35.7373C196.054 35.0802 196.137 34.7516 196.261 34.0945C197.17 30.7269 198.781 27.9342 201.136 25.7575C203.45 23.5808 206.219 22.1434 209.4 21.3631C212.54 20.6239 215.639 20.5006 218.573 21.0345M217.25 27.8931C216.507 27.7699 215.763 27.7288 215.143 27.8109C214.482 27.8931 213.78 28.0984 213.036 28.427C211.672 29.043 210.557 30.0697 209.689 31.2197C209.235 31.7946 208.78 32.4928 208.45 33.2321C208.119 34.0124 207.871 34.8338 207.706 35.7784C207.169 38.8996 207.458 41.4459 208.532 43.4172C209.607 45.3475 211.135 46.4974 213.119 46.867C213.367 46.9081 213.491 46.9491 213.78 46.9902C215.722 47.1545 217.333 46.867 218.614 46.0867C219.895 45.3064 220.969 44.2797 221.671 43.0065C222.043 42.3083 222.374 41.5691 222.622 40.912C222.87 40.2138 223.118 39.4746 223.242 38.6943C223.861 35.6962 223.696 33.1499 222.704 31.3018C221.754 29.4948 220.06 28.3448 217.788 27.9342C217.581 27.9342 217.498 27.8931 217.333 27.852" fill="#49A848"/>
<path d="M157.215 43.91C159.116 41.2816 160.066 40.0085 162.008 37.4211C162.545 36.6819 162.834 36.3122 163.372 35.573C163.909 34.8748 164.157 34.5463 164.694 33.8481C165.479 32.8214 165.851 32.2875 166.636 31.2607C167.379 30.2751 167.793 29.7823 168.536 28.7555C170.85 25.7575 172.007 24.2379 174.362 21.281C175.023 20.5006 175.354 20.09 175.974 19.3096C176.676 18.4472 177.048 17.9954 177.792 17.0919C178.659 16.0652 179.072 15.5724 179.94 14.5456C180.147 14.5456 180.229 14.5456 180.436 14.5867C181.097 15.8188 181.428 16.4348 182.13 17.6669C183.163 19.5971 183.659 20.5417 184.692 22.472C186.675 26.2092 187.625 28.0574 189.526 31.8357C191.013 34.8338 191.757 36.3533 193.203 39.3514C194.939 42.8422 195.765 44.5671 197.418 48.058C193.327 49.6597 191.303 50.4811 187.295 52.1239C186.014 49.0026 185.353 47.442 184.031 44.3618C179.196 44.0332 174.321 43.7458 169.487 43.5404C169.156 44.0332 168.991 44.3207 168.702 44.8136C168.33 45.4296 168.164 45.7171 167.793 46.3331C167.627 46.6206 167.545 46.7438 167.379 47.0313C167.131 47.442 167.008 47.6884 166.76 48.0991C166.553 48.4276 166.47 48.5919 166.264 48.9615C166.099 49.249 165.975 49.3722 165.809 49.6597C162.38 47.3188 160.686 46.1688 157.174 43.91M173.371 36.9283C176.676 37.0926 178.329 37.1747 181.634 37.38C180.395 34.0534 179.775 32.4107 178.494 29.1252C178.081 29.7412 177.833 30.0697 177.42 30.6858C177.007 31.3429 176.759 31.6714 176.345 32.2875C175.808 33.0678 175.56 33.4785 175.065 34.2588C174.403 35.3266 174.073 35.8605 173.412 36.8872" fill="#49A848"/>
<path d="M148.208 13.5189C147.96 16.7223 147.795 18.324 147.547 21.5274C147.465 22.7594 147.423 23.3755 147.341 24.6486C147.258 26.0039 147.217 26.7021 147.134 28.0984C147.051 29.2894 147.051 29.8644 146.969 31.0554C146.762 34.0534 146.679 35.573 146.473 38.571C148.126 38.6532 150.15 38.7764 152.547 38.8585C154.943 38.9817 156.555 39.0639 157.298 39.146C157.05 42.5958 156.885 44.3618 156.637 47.8116C155.15 47.6473 154.447 47.6062 152.96 47.442C150.481 47.1956 149.241 47.1134 146.762 46.9081C143.87 46.6617 142.424 46.5384 139.531 46.3331C137.796 46.251 136.928 46.2099 135.234 46.1688C135.317 44.8135 135.317 44.1564 135.4 42.8012C135.482 41.2405 135.524 40.5013 135.606 38.9407C135.772 35.4498 135.813 33.7249 135.978 30.234C136.143 24.4843 136.309 18.7757 136.474 13.0261C140.399 13.1493 144.324 13.3546 148.25 13.56" fill="#49A848"/>
<path d="M120.814 12.6565C124.739 12.6565 128.664 12.7797 132.548 12.8618C132.424 15.5313 132.342 16.8455 132.218 19.515C132.052 23.0469 131.97 24.8129 131.805 28.3038C131.763 32.2875 131.722 34.2588 131.639 38.2425C131.639 41.3227 131.598 42.8833 131.557 45.9635C127.136 45.8403 124.904 45.7992 120.483 45.7582C120.566 40.7888 120.649 35.8194 120.731 30.8501C120.731 24.7718 120.773 18.6936 120.814 12.6154" fill="#49A848"/>
<path d="M109.782 48.4277C105.815 42.8012 101.766 37.2569 97.6343 31.7536C99.3283 30.8501 100.65 29.7412 101.601 28.427C102.551 27.1128 103.047 25.8397 103.006 24.6076C103.006 23.3755 102.386 22.3077 101.229 21.5274C100.113 20.7882 98.2954 20.4185 95.8576 20.5417C96.2708 29.4537 96.684 38.3247 97.0971 47.2367C92.8827 47.4009 90.7755 47.4831 86.561 47.6884C86.3544 43.7458 86.1065 39.8031 85.8999 35.8605C85.8173 34.0535 85.5694 30.4805 85.1975 25.1825C84.8257 19.8436 84.6191 16.3527 84.4951 14.5867C85.4868 14.5456 86.0239 14.5046 87.0155 14.4635C88.3377 14.3814 89.7425 14.3403 91.3126 14.2992C92.8827 14.2992 94.5354 14.2582 96.3121 14.176C97.5103 14.176 98.6259 14.176 99.6175 14.176C100.609 14.2171 102.303 14.4224 104.617 14.751C106.972 15.0795 108.997 15.6956 110.773 16.5991C112.55 17.5026 113.624 18.6526 114.038 20.131C114.244 20.8703 114.327 21.6917 114.327 22.5541C114.327 24.0326 113.872 25.5932 112.922 27.0717C112.426 27.852 111.724 28.6324 110.939 29.3716C110.154 30.1108 109.203 30.8912 108.046 31.6304C108.542 32.1643 108.79 32.4107 109.286 32.9035C109.74 33.3553 109.947 33.5606 110.402 34.0124C110.815 34.382 111.021 34.5874 111.435 34.9981C111.889 35.4088 112.096 35.6141 112.55 36.0248C112.963 36.4355 113.211 36.6819 113.624 37.0926C114.079 37.5033 114.285 37.7497 114.74 38.1604C116.186 39.6389 116.888 40.4192 118.293 41.8977C114.781 44.444 113.046 45.7582 109.617 48.3455" fill="#49A848"/>
<path d="M63.6297 15.7777C67.0177 15.4492 69.7034 15.5313 71.6867 15.942C73.67 16.3527 75.4053 16.9687 76.9341 17.7901C77.6778 18.2008 78.3389 18.6526 78.9174 19.1454C79.4958 19.6382 80.0329 20.2542 80.5701 20.8703C81.4791 22.0202 82.3881 23.4576 82.9252 25.1004C83.5037 26.8253 83.7929 28.5913 83.8755 30.3162C83.9582 31.384 83.8755 32.3696 83.7516 33.2732C83.5863 34.1767 83.3384 35.2034 82.9252 36.3123C82.1815 38.3246 81.1072 40.1317 79.6611 41.7334C78.2149 43.3761 76.3969 44.7314 74.2484 45.7992C73.0502 46.3742 71.852 46.867 70.6124 47.2366C69.4142 47.6063 68.092 47.8527 66.6459 48.017C63.8776 48.2634 61.3572 48.1402 59.002 47.6473C56.6469 47.1545 54.581 46.2921 52.763 45.06C50.945 43.869 49.4989 42.4316 48.4659 40.7888C47.9288 39.9674 47.5156 39.105 47.1437 38.2014C46.8132 37.2979 46.5653 36.3533 46.4413 35.3677C46.4 34.7106 46.3587 34.382 46.3174 33.766C46.3174 30.3572 47.0611 27.3592 48.6725 24.7308C50.2839 22.1024 52.4738 20.0078 55.2008 18.4883C57.9278 16.9687 60.7787 16.0652 63.671 15.8188M64.2908 22.513C63.547 22.5952 62.8859 22.7595 62.3075 23.0059C61.729 23.2523 61.1093 23.663 60.5308 24.1558C59.4565 25.0593 58.6715 26.3325 58.1344 27.6467C57.8451 28.3038 57.6385 29.043 57.5146 29.8644C57.3906 30.6858 57.3906 31.5482 57.5146 32.4518C57.8451 35.532 58.7541 37.8318 60.2829 39.3514C61.8117 40.912 63.5057 41.5691 65.4477 41.4048C65.6956 41.4048 65.8195 41.4048 66.0674 41.3638C67.9267 41.0352 69.3316 40.337 70.3232 39.2692C71.3148 38.2014 72.0172 36.9694 72.3478 35.573C72.5131 34.8338 72.5957 34.0535 72.6783 33.3553C72.761 32.6571 72.761 31.8768 72.6783 31.0965C72.4304 28.1395 71.6454 25.7986 70.2406 24.3612C68.8771 22.9237 66.9764 22.3077 64.7866 22.513C64.6213 22.513 64.4973 22.513 64.3321 22.5541" fill="#49A848"/>
<path d="M38.7977 20.1721C34.5419 21.281 30.4928 23.2933 27.022 25.9628C25.1627 27.4002 23.7166 28.8787 22.725 30.3983C21.7333 31.9589 21.1962 33.5606 21.0309 35.2444C21.0309 35.8605 21.0722 36.189 21.1135 36.8051C21.3201 37.955 21.816 38.8585 22.4357 39.5978C23.1381 40.4192 23.8405 41.1584 24.5843 41.5691C26.113 42.3905 27.3939 42.8422 28.4268 42.9244C29.5011 43.0065 30.3275 43.0065 30.9886 43.0065C31.6497 43.0065 32.3934 42.9244 33.1784 42.8422C32.8479 40.7888 32.7239 39.762 32.3934 37.7086C32.3107 37.2568 32.1868 36.5587 32.0215 35.6141C31.8562 34.6695 31.691 33.9713 31.6497 33.5195C35.9881 32.8624 40.2851 32.2464 44.6235 31.7125C45.4499 37.6675 46.2763 43.6636 47.0613 49.6186C43.1774 50.9739 39.3348 51.9185 35.5749 52.4935C32.7652 52.9042 30.1209 53.1506 27.6418 53.1916C25.1627 53.2327 22.7663 52.9863 20.4525 52.4524C18.1386 51.9185 15.8662 50.9739 13.7176 49.7008C12.4368 48.9615 11.1559 47.6884 9.79239 45.8813C8.4289 44.0743 7.56122 42.1441 7.14804 40.1317C6.90013 38.7764 6.81749 37.5032 6.90013 36.2712C7.02408 35.0391 7.31331 33.6428 7.72649 32.1232C8.18099 30.6036 8.71812 29.2484 9.29658 28.0984C9.87503 26.9485 10.6601 25.7164 11.6517 24.4022C14.0482 21.2809 17.1057 18.5704 20.3698 16.2705C21.4441 15.4902 22.7663 14.6688 24.295 13.8474C25.1214 13.3957 25.8651 13.0261 26.6089 12.6564C27.3526 12.3279 28.0963 11.9583 28.9227 11.5476C31.0299 10.6851 32.1042 10.2334 34.2527 9.37091C36.0707 13.6832 36.9384 15.8188 38.715 20.131" fill="#49A848"/>
<mask id="mask0_297_679" style="mask-type:luminance" maskUnits="userSpaceOnUse" x="6" y="9" width="42" height="45">
<path d="M29.0051 11.5887C28.1787 11.9993 27.3937 12.369 26.6912 12.6975C25.9475 13.0261 25.2038 13.4368 24.3774 13.8885C22.8487 14.7099 21.5678 15.5724 20.4522 16.3116C17.1881 18.6115 14.1306 21.3631 11.7341 24.4433C10.7425 25.7164 9.95743 26.9896 9.37897 28.1395C8.80052 29.2894 8.26338 30.6037 7.80889 32.1643C7.35439 33.6838 7.06516 35.0802 6.94121 36.3123C6.81725 37.5443 6.94121 38.8175 7.18911 40.1728C7.6023 42.2262 8.46997 44.1154 9.83347 45.9224C11.197 47.7295 12.5191 49.0026 13.7587 49.7419C15.9072 51.015 18.1797 51.9185 20.4935 52.4935C22.8073 53.0274 25.2038 53.2738 27.6829 53.2327C30.162 53.1917 32.8063 52.9452 35.616 52.5345C39.4172 51.9596 43.2185 51.015 47.1024 49.6597C46.276 43.7047 45.4497 37.7086 44.6646 31.7536C40.3262 32.3286 35.9878 32.9035 31.6907 33.5606C31.7734 34.0124 31.8973 34.7106 32.0626 35.6552C32.2279 36.5997 32.3518 37.2979 32.4345 37.7497C32.765 39.8031 32.889 40.8299 33.2195 42.8833C32.4345 43.0065 31.6907 43.0476 31.0296 43.0476C30.3686 43.0476 29.5009 43.0476 28.4679 42.9655C27.3937 42.8833 26.1128 42.4316 24.6253 41.6102C23.8816 41.1995 23.1379 40.4602 22.4768 39.6389C21.857 38.8996 21.3199 37.955 21.1546 36.8462C21.1546 36.2301 21.1133 35.9016 21.072 35.2855C21.2373 33.6017 21.8157 31.9589 22.766 30.4394C23.7577 28.9198 25.2038 27.4413 27.0631 26.0039C30.4925 23.3344 34.583 21.3631 38.8388 20.2132C37.0621 15.9009 36.1944 13.7653 34.3764 9.45306C32.2279 10.3155 31.1949 10.7262 29.0464 11.6297" fill="white"/>
</mask>
<g mask="url(#mask0_297_679)">
<path d="M-1.23932 41.4048C-1.23932 41.4048 86.3137 7.48176 250.47 42.103L242.62 -5.49608L-3.09863 -11.2047L-1.23932 41.4048Z" fill="#8EC73F"/>
</g>
<mask id="mask1_297_679" style="mask-type:luminance" maskUnits="userSpaceOnUse" x="46" y="15" width="38" height="34">
<path d="M64.7038 41.4048C63.0511 41.4048 61.5637 40.7066 60.2002 39.3514C58.6714 37.7907 57.7624 35.4909 57.4318 32.4518C57.3492 31.5072 57.3492 30.6447 57.4318 29.8644C57.5558 29.043 57.8037 28.3038 58.0516 27.6467C58.5888 26.3325 59.3738 25.1004 60.4481 24.1558C61.0265 23.663 61.6463 23.2933 62.2247 23.0059C62.8032 22.7594 63.4643 22.5952 64.208 22.513C64.3733 22.513 64.4972 22.513 64.6625 22.472C66.8524 22.2666 68.753 22.8827 70.1165 24.3201C71.5213 25.7986 72.3064 28.0984 72.5543 31.0554C72.6369 31.8357 72.5956 32.575 72.5543 33.3142C72.4716 34.0124 72.389 34.7927 72.2237 35.5319C71.9345 36.9283 71.1908 38.1604 70.1991 39.2282C69.2075 40.296 67.7614 40.9531 65.9434 41.3227C65.6955 41.3227 65.5715 41.3227 65.3236 41.3638C65.117 41.3638 64.9104 41.3638 64.7038 41.3638C64.4972 41.3638 64.6625 41.3638 64.6212 41.3638M63.6296 15.7777C60.7373 16.0241 57.9277 16.9276 55.1594 18.4472C52.4324 19.9668 50.2425 22.0613 48.6311 24.6897C47.0197 27.3181 46.2346 30.3572 46.276 33.7249C46.3173 34.382 46.3586 34.7106 46.3999 35.3266C46.5239 36.3123 46.7718 37.2568 47.1023 38.1604C47.4329 39.0639 47.8874 39.9263 48.4245 40.7477C49.4988 42.3905 50.9036 43.7868 52.7216 45.0189C54.5396 46.2099 56.6055 47.0724 58.9606 47.6063C61.3157 48.0991 63.8361 48.2634 66.6045 47.9759C68.0506 47.8527 69.3728 47.6063 70.571 47.1956C71.7692 46.8259 72.9674 46.3331 74.207 45.7581C76.3555 44.6904 78.1735 43.3351 79.6197 41.6923C81.0658 40.0495 82.1814 38.2425 82.8838 36.2712C83.297 35.1212 83.5862 34.1356 83.7101 33.2321C83.8754 32.3285 83.9167 31.3429 83.8341 30.2751C83.7515 28.5913 83.4622 26.7842 82.8838 25.0593C82.3467 23.4166 81.4376 21.9791 80.5287 20.8292C80.0328 20.1721 79.4544 19.5971 78.8759 19.1043C78.2975 18.6115 77.6364 18.1597 76.8927 17.749C75.4052 16.9276 73.6285 16.3116 71.6453 15.9009C70.6123 15.6956 69.3728 15.5724 67.9266 15.5724C67.8027 15.5724 67.6374 15.5724 67.5135 15.5724C66.3152 15.5724 64.9931 15.6545 63.5882 15.7777" fill="white"/>
</mask>
<g mask="url(#mask1_297_679)">
<path d="M-1.2403 41.4048C-1.2403 41.4048 86.3127 7.48173 250.469 42.103L242.619 -5.49611L-3.09961 -11.2047L-1.2403 41.4048Z" fill="#8EC73F"/>
</g>
<mask id="mask2_297_679" style="mask-type:luminance" maskUnits="userSpaceOnUse" x="84" y="14" width="35" height="35">
<path d="M96.3951 14.176C94.6184 14.2171 92.9657 14.2582 91.3956 14.2992C89.8255 14.2992 88.4207 14.3814 87.0985 14.4635C86.1069 14.5046 85.6111 14.5456 84.5781 14.5867C84.6608 16.3116 84.9087 19.8436 85.2805 25.1825C85.6524 30.5215 85.859 34.0535 85.9829 35.8605C86.1895 39.8031 86.4374 43.7458 86.644 47.6884C90.8585 47.442 92.9657 47.3599 97.1801 47.2367C96.767 38.3247 96.3538 29.4537 95.9406 20.5417C98.3784 20.4596 100.196 20.7882 101.312 21.5274C102.469 22.3077 103.047 23.3755 103.089 24.6076C103.089 25.8397 102.634 27.0717 101.684 28.427C100.733 29.7412 99.4113 30.8501 97.7173 31.7536C101.849 37.2569 105.898 42.8012 109.865 48.4277C113.294 45.7992 115.03 44.5261 118.542 41.9798C117.137 40.4602 116.434 39.721 114.988 38.2425C114.534 37.8318 114.327 37.5854 113.873 37.1747C113.459 36.764 113.253 36.5176 112.798 36.1069C112.344 35.6962 112.137 35.4909 111.683 35.0802C111.27 34.7106 111.063 34.5052 110.65 34.0945C110.195 33.6428 109.989 33.4374 109.534 32.9857C109.038 32.4518 108.791 32.2054 108.295 31.7125C109.41 30.9322 110.361 30.193 111.187 29.4537C111.972 28.7145 112.674 27.9342 113.17 27.1539C114.121 25.6754 114.575 24.1147 114.575 22.6363C114.575 21.7738 114.492 20.9524 114.286 20.2132C113.873 18.7347 112.798 17.5848 111.022 16.6812C109.245 15.7777 107.179 15.1617 104.865 14.8331C102.51 14.5046 100.857 14.2992 99.8658 14.2582C99.494 14.2582 99.1221 14.2582 98.7502 14.2582C98.585 14.2582 98.3784 14.2582 98.2131 14.2582C97.676 14.2582 97.1388 14.2582 96.5604 14.2582" fill="white"/>
</mask>
<g mask="url(#mask2_297_679)">
<path d="M-1.23932 41.4048C-1.23932 41.4048 86.3137 7.48176 250.47 42.103L242.62 -5.49608L-3.09863 -11.2047L-1.23932 41.4048Z" fill="#8EC73F"/>
</g>
<mask id="mask3_297_679" style="mask-type:luminance" maskUnits="userSpaceOnUse" x="120" y="12" width="13" height="34">
<path d="M120.731 30.8501C120.649 35.8194 120.566 40.7888 120.483 45.7582C124.904 45.7582 127.136 45.8403 131.557 45.9635C131.557 42.8833 131.598 41.3227 131.639 38.2425C131.681 34.2588 131.722 32.2875 131.805 28.3038C131.97 24.7718 132.052 23.0059 132.218 19.515C132.342 16.8455 132.424 15.5313 132.548 12.8618C129.408 12.7797 126.309 12.6975 123.21 12.6565C122.425 12.6565 121.599 12.6565 120.814 12.6565C120.814 18.7347 120.773 24.8129 120.731 30.8911" fill="white"/>
</mask>
<g mask="url(#mask3_297_679)">
<path d="M-1.23932 41.4048C-1.23932 41.4048 86.3137 7.48176 250.47 42.103L242.62 -5.49608L-3.09863 -11.2047L-1.23932 41.4048Z" fill="#8EC73F"/>
</g>
<mask id="mask4_297_679" style="mask-type:luminance" maskUnits="userSpaceOnUse" x="135" y="12" width="23" height="36">
<path d="M135.936 30.193C135.771 33.6838 135.73 35.4087 135.564 38.8996C135.482 40.4602 135.44 41.1995 135.358 42.7601C135.275 44.1154 135.275 44.7725 135.192 46.1278C136.928 46.2099 137.795 46.2099 139.489 46.292C142.382 46.4974 143.828 46.6206 146.72 46.867C149.199 47.0724 150.439 47.1956 152.918 47.4009C154.405 47.5241 155.149 47.6063 156.595 47.7705C156.843 44.3207 157.008 42.5548 157.256 39.1049C156.471 39.0639 154.901 38.9407 152.505 38.8175C150.108 38.6943 148.084 38.6121 146.431 38.4889C146.637 35.4909 146.72 33.9713 146.927 30.9733C147.009 29.7823 147.009 29.2073 147.092 28.0163C147.175 26.661 147.216 25.9628 147.299 24.5665C147.381 23.3344 147.423 22.7184 147.546 21.4452C147.794 18.2418 147.96 16.6402 148.208 13.4368C144.282 13.2314 140.357 13.0261 136.432 12.9029C136.267 18.6525 136.101 24.3611 135.936 30.1108" fill="white"/>
</mask>
<g mask="url(#mask4_297_679)">
<path d="M-1.2403 41.4048C-1.2403 41.4048 86.3127 7.48173 250.469 42.103L242.619 -5.49611L-3.09961 -11.2047L-1.2403 41.4048Z" fill="#8EC73F"/>
</g>
<mask id="mask5_297_679" style="mask-type:luminance" maskUnits="userSpaceOnUse" x="157" y="14" width="41" height="39">
<path d="M173.371 36.9283C174.032 35.8605 174.362 35.3266 175.023 34.2999C175.56 33.5196 175.808 33.1089 176.304 32.3286C176.717 31.6715 176.965 31.3429 177.378 30.7269C177.792 30.1108 178.04 29.7823 178.453 29.1662C179.734 32.4518 180.395 34.1356 181.634 37.4211C178.329 37.2158 176.676 37.1337 173.371 36.9694M177.874 17.0919C177.131 17.9544 176.8 18.4061 176.056 19.3097C175.395 20.09 175.065 20.5007 174.445 21.281C172.09 24.279 170.933 25.7575 168.619 28.7556C167.834 29.7412 167.462 30.234 166.718 31.2608C165.933 32.2875 165.561 32.8214 164.776 33.8481C164.239 34.5463 163.991 34.8749 163.454 35.573C162.917 36.3123 162.628 36.6819 162.091 37.4211C160.149 40.0085 159.198 41.3227 157.298 43.9101C160.769 46.1689 162.504 47.3188 165.933 49.6597C166.099 49.3722 166.223 49.249 166.388 48.9616C166.594 48.633 166.677 48.4687 166.884 48.0991C167.132 47.6884 167.256 47.442 167.503 47.0313C167.669 46.7438 167.751 46.6206 167.917 46.3331C168.288 45.7171 168.454 45.4296 168.826 44.8136C169.156 44.3207 169.321 44.0333 169.611 43.5404C174.445 43.7458 179.32 43.9922 184.155 44.3207C185.477 47.442 186.138 49.0026 187.419 52.0828C191.427 50.399 193.451 49.6187 197.542 48.017C195.889 44.5261 195.063 42.7601 193.327 39.3103C191.881 36.3123 191.137 34.7927 189.65 31.7947C187.749 28.0574 186.799 26.1682 184.816 22.4309C183.824 20.5007 183.287 19.5561 182.254 17.6258C181.593 16.3938 181.262 15.7777 180.56 14.5456C180.353 14.5456 180.271 14.5456 180.064 14.5046C179.196 15.5313 178.742 16.0241 177.916 17.0509" fill="white"/>
</mask>
<g mask="url(#mask5_297_679)">
<path d="M-1.23932 41.4048C-1.23932 41.4048 86.3137 7.48176 250.47 42.103L242.62 -5.49608L-3.09863 -11.2047L-1.23932 41.4048Z" fill="#8EC73F"/>
</g>
<mask id="mask6_297_679" style="mask-type:luminance" maskUnits="userSpaceOnUse" x="195" y="20" width="41" height="35">
<path d="M214.565 47.0724C214.276 47.0724 213.986 47.0724 213.697 47.0313C213.449 46.9902 213.325 46.9491 213.036 46.9081C211.053 46.5385 209.524 45.3885 208.45 43.4583C207.376 41.528 207.086 38.9817 207.624 35.8194C207.789 34.8748 208.037 34.0124 208.367 33.2731C208.698 32.4928 209.152 31.8357 209.607 31.2607C210.516 30.1108 211.631 29.0841 212.954 28.468C213.697 28.1395 214.4 27.9341 215.061 27.852C215.722 27.7699 216.424 27.7699 217.168 27.9341C217.375 27.9341 217.457 27.9752 217.622 28.0163C219.854 28.427 221.548 29.5769 222.539 31.384C223.531 33.2321 223.696 35.7373 223.076 38.7764C222.911 39.5567 222.705 40.337 222.457 40.9941C222.209 41.6923 221.878 42.3905 221.506 43.0886C220.804 44.3618 219.771 45.4296 218.449 46.1688C217.375 46.7849 216.135 47.1134 214.648 47.1134C213.16 47.1134 214.565 47.1134 214.524 47.1134M209.318 21.322C206.177 22.0613 203.409 23.5398 201.054 25.7164C198.699 27.8931 197.087 30.6447 196.178 34.0534C196.054 34.7105 195.972 35.0391 195.848 35.6962C195.683 36.7229 195.683 37.7086 195.765 38.6943C195.848 39.6799 196.054 40.6656 196.344 41.6102C196.922 43.4993 197.955 45.3064 199.443 47.0313C200.93 48.7151 202.748 50.1525 204.938 51.3025C207.128 52.4524 209.607 53.2738 212.416 53.8077C213.904 54.0952 215.267 54.1773 216.59 54.1362C217.912 54.1362 219.234 53.972 220.597 53.6845C223.035 53.2327 225.225 52.4113 227.126 51.1793C229.026 49.9883 230.638 48.4687 231.919 46.7027C232.662 45.676 233.241 44.7725 233.613 43.91C234.026 43.0476 234.315 42.103 234.563 40.9941C234.935 39.3103 235.141 37.4622 235.059 35.573C234.976 33.807 234.48 32.1232 233.902 30.7268C233.571 29.9465 233.199 29.2073 232.745 28.5502C232.29 27.8931 231.753 27.277 231.134 26.661C229.853 25.4289 228.283 24.3201 226.423 23.3755C224.564 22.4309 221.878 21.6095 218.408 20.9935C217.251 20.7881 216.094 20.6649 214.937 20.6649C214.854 20.6649 214.772 20.6649 214.648 20.6649C212.871 20.6649 211.053 20.8703 209.235 21.322" fill="white"/>
</mask>
<g mask="url(#mask6_297_679)">
<path d="M-1.23932 41.4048C-1.23932 41.4048 86.3137 7.48173 250.47 42.103L242.62 -5.49611L-3.09863 -11.2047L-1.23932 41.4048Z" fill="#8EC73F"/>
</g>
<path d="M177.213 6.7425C177.668 6.7425 178.039 6.86571 178.287 6.94785C178.535 7.02999 178.866 7.1532 179.32 7.31747C180.312 7.8103 180.808 8.09779 181.758 8.59062C182.171 8.83703 182.626 9.04237 183.122 9.24772C183.617 9.45307 183.948 9.61734 184.196 9.65841C185.187 9.86376 186.262 9.08344 187.088 7.52282C188.452 8.38527 189.154 8.79596 190.517 9.65841C189.815 11.0958 188.989 12.3279 188.038 13.3957C187.088 14.4635 185.931 14.9153 184.526 14.7099C184.072 14.6278 183.535 14.4635 182.956 14.2171C182.171 13.8064 181.758 13.601 180.973 13.2314C180.229 12.8618 179.857 12.6565 179.114 12.2458C178.577 12.0815 178.287 11.9994 177.75 11.8351C176.635 11.7119 175.684 12.41 174.941 14.0117C173.618 13.2314 172.916 12.8207 171.594 12.0404C172.255 10.1512 173.164 8.79596 174.238 7.97458C175.354 7.1532 176.387 6.70144 177.172 6.7425" fill="#8EC73F"/>
</g>
<defs>
<clipPath id="clip0_297_679">
<rect width="242" height="63" fill="white" transform="translate(0 0.5)"/>
</clipPath>
</defs>
</svg>
